<svg id="Layer_1" data-name="Layer 1" xmlns="http://www.w3.org/2000/svg" height="40" width="40" viewBox="0 0 2089.8287 1869.4316"><defs><style>.cls-1,.cls-4,.cls-9{fill:none;}.cls-1,.cls-5{stroke:#73cfa8;}.cls-1,.cls-2,.cls-3,.cls-4,.cls-5,.cls-6,.cls-7,.cls-8,.cls-9{stroke-linecap:round;stroke-width:95.2719px;}.cls-1{stroke-miterlimit:10;}.cls-2,.cls-3,.cls-5,.cls-6,.cls-7{fill:#7449c8;}.cls-2,.cls-9{stroke:#ff8da0;}.cls-2,.cls-3,.cls-4,.cls-5,.cls-6,.cls-7,.cls-8,.cls-9{stroke-linejoin:round;}.cls-3{stroke:#73b1ff;}.cls-4,.cls-7,.cls-8{stroke:#7449c8;}.cls-6{stroke:#ffdc79;}.cls-8{fill:#ff8da0;}</style></defs><line class="cls-1" x1="1138.5388" y1="47.6359" x2="1185.198" y2="65.7587"/><line class="cls-1" x1="1306.654" y1="111.2236" x2="1574.2851" y2="216.9251"/><line class="cls-2" x1="902.881" y1="140.6565" x2="949.5401" y2="158.7793"/><line class="cls-2" x1="1081.6776" y1="212.2481" x2="1128.3367" y2="230.3709"/><line class="cls-2" x1="1257.4259" y1="283.3213" x2="1304.0851" y2="301.4441"/><line class="cls-3" x1="663.4834" y1="234.5344" x2="931.1146" y2="340.2359"/><line class="cls-3" x1="1056.5684" y1="391.2935" x2="1103.2275" y2="409.4163"/><line class="cls-1" x1="229.8447" y1="443.6539" x2="497.4758" y2="549.3554"/><line class="cls-1" x1="656.9567" y1="612.9668" x2="703.6159" y2="631.0896"/><path class="cls-4" d="M1714.3161,273.5692s17.4036,8.765,125.3459,50.9218c183.88,73.9154,200.2633,131.71,202.0712,291.6506s-2.301,875.6337-2.301,875.6337"/><line class="cls-5" x1="1069.9151" y1="1033.3459" x2="1069.472" y2="1083.399"/><line class="cls-2" x1="230.1938" y1="668.1311" x2="497.825" y2="773.8326"/><line class="cls-2" x1="856.57" y1="1156.8288" x2="858.6583" y2="1444.5698"/><line class="cls-6" x1="227.8966" y1="898.9425" x2="495.5277" y2="1004.644"/><line class="cls-6" x1="648.2965" y1="1146.5714" x2="649.7824" y2="1196.6045"/><line class="cls-6" x1="647.2207" y1="1333.9228" x2="647.8408" y2="1383.974"/><line class="cls-5" x1="228.0569" y1="1127.3635" x2="274.7161" y2="1145.4863"/><line class="cls-5" x1="436.7131" y1="1256.3812" x2="437.4445" y2="1306.431"/><path class="cls-1" d="M861.8119,697.0805,995.429,744.4032s70.5153,28.2814,73.2989,100.6573,0,11.8809,0,11.8809"/><line class="cls-7" x1="1070.5426" y1="1236.5598" x2="1068.9737" y2="1821.7956"/><line class="cls-8" x1="858.6322" y1="1590.2824" x2="858.412" y2="1741.242"/><line class="cls-8" x1="647.8854" y1="1656.383" x2="650.4803" y2="1528.6586"/><line class="cls-8" x1="437.6385" y1="1568.5383" x2="438.7971" y2="1456.1569"/><line class="cls-8" x1="226.259" y1="1486.5974" x2="227.602" y2="1361.8245"/><path class="cls-9" d="M627.3689,827.8281,693.94,856.0593s125.1912,33.479,153.438,100.3809c6.999,16.5769,6.0083,17.8256,6.0083,17.8256"/><path class="cls-4" d="M1433.45,351.9038s141.7321,60.8,239.3823,96.0624,122.6318,117.91,124.7753,200.7255.9926,936.046.9926,936.046"/><path class="cls-4" d="M1231.7245,461.5492s88.482,35.2421,183.42,73.2172,139.2517,121.1144,140.151,193.47-1.4022,951.5674-1.4022,951.5674"/><path class="cls-4" d="M421.182,327.3055l709.1491,283.4111s182.6173,51.93,184.89,214.4842-1.0871,947.0635-1.0871,947.0635"/></svg>
