<?xml version="1.0" encoding="UTF-8" standalone="no"?>
<!DOCTYPE svg PUBLIC "-//W3C//DTD SVG 1.1//EN" "http://www.w3.org/Graphics/SVG/1.1/DTD/svg11.dtd">
<svg width="100%" height="100%" viewBox="0 0 40 40" version="1.1" xmlns="http://www.w3.org/2000/svg" xmlns:xlink="http://www.w3.org/1999/xlink" xml:space="preserve" xmlns:serif="http://www.serif.com/" style="fill-rule:evenodd;clip-rule:evenodd;stroke-linejoin:round;stroke-miterlimit:2;">
    <g transform="matrix(0.955566,0,0,0.731595,1.44553,0.32236)">
        <rect x="1.644" y="2.327" width="7.309" height="2.75" style="fill:rgb(0,68,255);"/>
    </g>
    <g transform="matrix(0.974037,0,0,1,0.0257204,0)">
        <rect x="2.045" y="5.02" width="36.91" height="2.018" style="fill:rgb(0,68,255);"/>
    </g>
    <g transform="matrix(1.01175,0,0,1.03214,-0.275261,-0.12839)">
        <rect x="12.109" y="2.086" width="6.961" height="1.909" style="fill:rgb(0,68,255);"/>
    </g>
    <g transform="matrix(1,0,0,1.06052,0,-0.179001)">
        <rect x="21.018" y="2.078" width="6.975" height="1.859" style="fill:rgb(0,68,255);"/>
    </g>
    <g transform="matrix(1.00662,0,0,1.04869,-0.19884,-0.169716)">
        <rect x="30.015" y="2.092" width="6.947" height="1.89" style="fill:rgb(0,68,255);"/>
    </g>
    <g transform="matrix(0.882204,0,0,1.2491,0.347078,-9.50742)">
        <rect x="3.026" y="30.045" width="33.991" height="7.954" style="fill:rgb(0,68,255);"/>
    </g>
    <g transform="matrix(1.02869,0,0,0.992032,-1.00501,0.201464)">
        <rect x="35.024" y="28.045" width="1.95" height="10.01" style="fill:rgb(0,68,255);"/>
    </g>
    <g transform="matrix(0.993452,0,0,1,0.0198165,0)">
        <rect x="3.026" y="8.04" width="7.028" height="18.833" style="fill:rgb(0,68,255);"/>
    </g>
    <rect x="12.076" y="8.014" width="6.901" height="14.968" style="fill:rgb(0,68,255);"/>
    <rect x="21.057" y="8.049" width="6.961" height="10.907" style="fill:rgb(0,68,255);"/>
    <rect x="30.017" y="8.024" width="6.968" height="6.918" style="fill:rgb(0,68,255);"/>
    <g transform="matrix(2.10418,0,0,0.976659,-37.525,-1.23072)">
        <rect x="33.04" y="34.003" width="1.912" height="2.112" style="fill:rgb(0,68,255);"/>
    </g>
    <g transform="matrix(16.4725,0,0,0.957536,-541.4,1.5321)">
        <rect x="33.049" y="36.08" width="2.066" height="1.952" style="fill:rgb(0,68,255);"/>
    </g>
    <g transform="matrix(15.854,0,0,0.989319,-519.573,-1.64368)">
        <rect x="32.962" y="29.986" width="2.146" height="2.021" style="fill:rgb(0,68,255);"/>
    </g>
</svg>
