<svg width="80" height="80" xmlns="http://www.w3.org/2000/svg">
 <!-- Created with Method Draw - http://github.com/duopixel/Method-Draw/ -->

 <g>
  <title>background</title>
  <rect fill="#ffffff" id="canvas_background" height="82" width="82" y="-1" x="-1"/>
  <g display="none" overflow="visible" y="0" x="0" height="100%" width="100%" id="canvasGrid">
   <rect fill="url(#gridpattern)" stroke-width="0" y="0" x="0" height="100%" width="100%"/>
  </g>
 </g>
 <g>
  <title>Layer 1</title>
  <path id="svg_3" d="m-466.400963,-59.415812c-0.102772,0.001707 -0.253186,-0.024227 -0.148105,-0.082076c0.114405,-0.022024 -0.020334,-0.09502 0.09432,-0.129406c0.092029,-0.063998 0.2171,-0.12244 0.254844,-0.200593c-0.005862,-0.053003 -0.13541,-0.084371 -0.073604,-0.143038c-0.060637,-0.093882 -0.046623,-0.20194 0.064065,-0.286332c0.093989,-0.078383 0.208103,-0.161436 0.196068,-0.25629c-0.11788,0.02404 -0.242658,0.045103 -0.37239,0.034185c-0.121967,-0.005532 -0.231354,0.042701 -0.355766,0.016475c-0.126113,-0.012796 -0.201127,-0.095148 -0.107096,-0.143288c0.102757,-0.042866 0.253734,-0.044246 0.351734,-0.092086c0.1293,-0.052309 0.248896,-0.12306 0.427104,-0.132308c0.078764,-0.008807 0.112547,-0.04746 0.156146,-0.076427c0.036232,0.045942 0.099249,0.086568 0.194094,0.106935c0.192867,0.054559 0.240877,0.169903 0.312002,0.264722c0.052588,0.074259 0.096401,0.151791 0.184463,0.218085c0.000936,0.031817 -0.097911,0.045265 -0.031147,0.082565c0.034723,0.101162 0.036217,0.204754 0.033139,0.307098c-0.058562,0.050085 -0.111905,0.105986 -0.033785,0.163465c0.052182,0.070255 0.182141,0.116332 0.246079,0.182628c0.036143,0.034328 -0.070461,0.084166 0.062359,0.075533c0.121296,0.03134 0.023353,0.107841 -0.097286,0.085586c-0.452097,0.005614 -0.905189,0.011221 -1.357237,0.004566l0,0z" fill-opacity="null" stroke-opacity="null" stroke-width="1.5" stroke="#000" fill="#fff"/>
  <rect stroke="null" id="svg_5" height="32.15935" width="60.379191" y="4.76426" x="9.810404" stroke-width="2.5" fill="#ff002e"/>
  <line stroke-linecap="null" stroke-linejoin="null" id="svg_7" y2="72.764261" x2="47.5" y1="46.764261" x1="65.5" stroke-width="2.5" fill="none"/>
  <line stroke-linecap="null" stroke-linejoin="null" id="svg_8" y2="52.452598" x2="27.678532" y1="30.02121" x1="34.313168" stroke-width="2.5" stroke="null" fill="#ff002e"/>
  <path id="svg_13" d="m9.768933,37.083822l29.462223,36.661899c0.076529,-15.738616 31.153759,-36.754208 31.077229,-36.769593l-60.539452,0.107694z" stroke-opacity="null" stroke-width="2.5" stroke="null" fill="#f4f4f4"/>
  <text xml:space="preserve" text-anchor="start" font-family="Helvetica, Arial, sans-serif" font-size="24" id="svg_12" y="45.783313" x="22.65794" stroke-width="0" fill="#ffffff">BG</text>
 </g>
</svg>